<?xml version="1.0" encoding="iso-8859-1"?>
<!-- Uploaded to: SVG Repo, www.svgrepo.com, Generator: SVG Repo Mixer Tools -->
<!DOCTYPE svg PUBLIC "-//W3C//DTD SVG 1.1//EN" "http://www.w3.org/Graphics/SVG/1.1/DTD/svg11.dtd">
<svg version="1.1" id="Capa_1" xmlns="http://www.w3.org/2000/svg" xmlns:xlink="http://www.w3.org/1999/xlink" 
	 viewBox="0 0 461.76 461.76" xml:space="preserve">
<g>
	<path style="fill:#B3B3B3;" d="M312.133,454.995h-16.43V303.979c0-4.537,3.678-8.215,8.215-8.215h0
		c4.537,0,8.215,3.678,8.215,8.215V454.995z"/>
	<path style="fill:#B3B3B3;" d="M56.343,454.995h-16.43V303.979c0-4.537,3.678-8.215,8.215-8.215h0c4.537,0,8.215,3.678,8.215,8.215
		V454.995z"/>
	<path style="fill:#B3B3B3;" d="M242.176,6.765h-58.779c-16.92,0-30.637,13.717-30.637,30.637v223.863h89.416V6.765z"/>
	<rect x="208.982" y="84.83" style="fill:#CCCCCC;" width="33.194" height="176.435"/>
	<path style="fill:#D3674A;" d="M334,300.265c0,10.77-4.36,20.52-11.42,27.58c-7.06,7.06-16.81,11.42-27.58,11.42H39
		c-10.64,0-20.28-4.25-27.32-11.17c-2.69-2.64-5-5.67-6.85-9c-2.39-4.34-3.98-9.18-4.57-14.33c-0.17-1.48-0.26-2.98-0.26-4.5
		c0-1.52,0.09-3.02,0.26-4.5c0.59-5.15,2.18-9.99,4.57-14.33c1.79-3.22,4.01-6.17,6.59-8.75c0.09-0.09,0.17-0.17,0.26-0.25
		c7.04-6.92,16.68-11.17,27.32-11.17h256C316.54,261.265,334,278.724,334,300.265z"/>
	<g>
		<path style="fill:#EF7954;" d="M168,272.435v9H4.83c1.79-3.22,4.01-6.17,6.59-8.75c0.09-0.09,0.17-0.17,0.26-0.25H168z"/>
		<path style="fill:#EF7954;" d="M159.33,295.765v9H0.26c-0.17-1.48-0.26-2.98-0.26-4.5c0-1.52,0.09-3.02,0.26-4.5H159.33z"/>
		<path style="fill:#EF7954;" d="M159.33,319.094v9H11.68c-2.69-2.64-5-5.67-6.85-9H159.33z"/>
	</g>
	<path style="fill:#EF7954;" d="M422.76,339.265h-256c-21.539,0-39-17.461-39-39v0c0-21.539,17.461-39,39-39h256
		c21.539,0,39,17.461,39,39v0C461.76,321.804,444.299,339.265,422.76,339.265z"/>
	<circle style="fill:#BF5843;" cx="168.001" cy="300.265" r="22.499"/>
	<circle style="fill:#BF5843;" cx="255.796" cy="300.265" r="22.499"/>
	<circle style="fill:#BF5843;" cx="339.792" cy="300.265" r="22.499"/>
	<path style="fill:#BF5843;" d="M446.29,300.265c0,12.43-10.08,22.5-22.5,22.5c-4.7,0-9.06-1.44-12.67-3.9
		c-5.94-4.05-9.83-10.87-9.83-18.6c0-7.73,3.89-14.55,9.83-18.6c3.61-2.46,7.97-3.9,12.67-3.9
		C436.21,277.765,446.29,287.835,446.29,300.265z"/>
	<path style="fill:#D3674A;" d="M420.95,300.265c0,7.73-3.89,14.55-9.83,18.6c-5.94-4.05-9.83-10.87-9.83-18.6
		c0-7.73,3.89-14.55,9.83-18.6C417.06,285.715,420.95,292.534,420.95,300.265z"/>
	<path style="fill:#D3674A;" d="M336.953,300.265c0,7.73-3.89,14.55-9.83,18.6c-5.94-4.05-9.83-10.87-9.83-18.6
		c0-7.73,3.89-14.55,9.83-18.6C333.063,285.715,336.953,292.534,336.953,300.265z"/>
	<path style="fill:#D3674A;" d="M252.957,300.265c0,7.73-3.89,14.55-9.83,18.6c-5.94-4.05-9.83-10.87-9.83-18.6
		c0-7.73,3.89-14.55,9.83-18.6C249.067,285.715,252.957,292.534,252.957,300.265z"/>
	<path style="fill:#D3674A;" d="M165.16,300.265c0,3.07-0.61,6-1.73,8.67c-1.69,4.05-4.52,7.49-8.1,9.93
		c-3.58-2.44-6.41-5.88-8.1-9.93c-1.12-2.67-1.73-5.6-1.73-8.67c0-1.54,0.15-3.04,0.45-4.5c1.18-5.84,4.62-10.86,9.38-14.1
		c4.76,3.24,8.2,8.26,9.38,14.1C165.01,297.224,165.16,298.724,165.16,300.265z"/>
	<g>
		<path style="fill:#62AF68;" d="M140.43,187.365v73.9H83.76v-73.9c0-2.76,0.82-5.4,2.27-7.62c1.45-2.22,3.53-4.04,6.06-5.15
			c5.07-2.22,8.34-7.23,8.34-12.77v-24.89h23.33v24.89c0,2.77,0.82,5.41,2.27,7.63c1.45,2.22,3.53,4.03,6.06,5.14
			C137.16,176.825,140.43,181.835,140.43,187.365z"/>
		<path style="fill:#77C67F;" d="M140.43,187.365v73.9H93.09v-73.9c0-2.76,0.82-5.4,2.27-7.62c1.45-2.22,3.54-4.04,6.07-5.15
			c5.06-2.22,8.33-7.23,8.33-12.77v-24.89h14v24.89c0,2.77,0.82,5.41,2.27,7.63c1.45,2.22,3.53,4.03,6.06,5.14
			C137.16,176.825,140.43,181.835,140.43,187.365z"/>
		<path style="opacity:0.49;fill:#F2F2F2;" d="M130.093,187.365v73.9h-13v-73.9c0-11.767-3.667-20-3.667-25.54v-24.89h4.333v24.89
			c0,2.77,0.82,5.41,2.27,7.63C121.48,171.675,130.093,181.835,130.093,187.365z"/>
		<rect x="100.427" y="120.931" style="fill:#EF7954;" width="23.333" height="13.333"/>
		<rect x="100.427" y="120.931" style="fill:#D3674A;" width="9.333" height="13.333"/>
	</g>
	<g>
		<path style="fill:#62AF68;" d="M219.319,187.365v73.9h-56.67v-73.9c0-2.76,0.82-5.4,2.27-7.62c1.45-2.22,3.53-4.04,6.06-5.15
			c5.07-2.22,8.34-7.23,8.34-12.77v-24.89h23.33v24.89c0,2.77,0.82,5.41,2.27,7.63c1.45,2.22,3.53,4.03,6.06,5.14
			C216.049,176.825,219.319,181.835,219.319,187.365z"/>
		<path style="fill:#77C67F;" d="M219.319,187.365v73.9h-47.34v-73.9c0-2.76,0.82-5.4,2.27-7.62c1.45-2.22,3.54-4.04,6.07-5.15
			c5.06-2.22,8.33-7.23,8.33-12.77v-24.89h14v24.89c0,2.77,0.82,5.41,2.27,7.63c1.45,2.22,3.53,4.03,6.06,5.14
			C216.049,176.825,219.319,181.835,219.319,187.365z"/>
		<path style="opacity:0.49;fill:#F2F2F2;" d="M208.982,187.365v73.9h-13v-73.9c0-11.767-3.667-20-3.667-25.54v-24.89h4.333v24.89
			c0,2.77,0.82,5.41,2.27,7.63C200.369,171.675,208.982,181.835,208.982,187.365z"/>
		<rect x="179.316" y="120.931" style="fill:#EF7954;" width="23.333" height="13.333"/>
		<rect x="179.316" y="120.931" style="fill:#D3674A;" width="9.333" height="13.333"/>
	</g>
	<path style="fill:#62AF68;" d="M298.208,187.365v73.9h-56.67v-73.9c0-2.76,0.82-5.4,2.27-7.62c1.45-2.22,3.53-4.04,6.06-5.15
		c5.07-2.22,8.34-7.23,8.34-12.77v-24.89h23.33v24.89c0,2.77,0.82,5.41,2.27,7.63c1.45,2.22,3.53,4.03,6.06,5.14
		C294.938,176.825,298.208,181.835,298.208,187.365z"/>
	<path style="fill:#77C67F;" d="M298.208,187.365v73.9h-47.34v-73.9c0-2.76,0.82-5.4,2.27-7.62c1.45-2.22,3.54-4.04,6.07-5.15
		c5.06-2.22,8.33-7.23,8.33-12.77v-24.89h14v24.89c0,2.77,0.82,5.41,2.27,7.63c1.45,2.22,3.53,4.03,6.06,5.14
		C294.938,176.825,298.208,181.835,298.208,187.365z"/>
	<path style="opacity:0.49;fill:#F2F2F2;" d="M287.871,187.365v73.9h-13v-73.9c0-11.767-3.667-20-3.667-25.54v-24.89h4.333v24.89
		c0,2.77,0.82,5.41,2.27,7.63C279.258,171.675,287.871,181.835,287.871,187.365z"/>
	<rect x="258.205" y="106.496" style="fill:#EF7954;" width="23.333" height="13.333"/>
	<rect x="258.205" y="106.496" style="fill:#D3674A;" width="9.333" height="13.333"/>
	<g>
		<path style="fill:#62AF68;" d="M377.097,187.365v73.9h-56.67v-73.9c0-2.76,0.82-5.4,2.27-7.62c1.45-2.22,3.53-4.04,6.06-5.15
			c5.07-2.22,8.34-7.23,8.34-12.77v-24.89h23.33v24.89c0,2.77,0.82,5.41,2.27,7.63c1.45,2.22,3.53,4.03,6.06,5.14
			C373.827,176.825,377.097,181.835,377.097,187.365z"/>
		<path style="fill:#77C67F;" d="M377.097,187.365v73.9h-47.34v-73.9c0-2.76,0.82-5.4,2.27-7.62c1.45-2.22,3.54-4.04,6.07-5.15
			c5.06-2.22,8.33-7.23,8.33-12.77v-24.89h14v24.89c0,2.77,0.82,5.41,2.27,7.63c1.45,2.22,3.53,4.03,6.06,5.14
			C373.827,176.825,377.097,181.835,377.097,187.365z"/>
		<path style="opacity:0.49;fill:#F2F2F2;" d="M366.76,187.365v73.9h-13v-73.9c0-11.767-3.667-20-3.667-25.54v-24.89h4.333v24.89
			c0,2.77,0.82,5.41,2.27,7.63C358.147,171.675,366.76,181.835,366.76,187.365z"/>
	</g>
	<rect x="251.87" y="84.835" style="fill:#CCCCCC;" width="36" height="21.66"/>
	<rect x="260.597" y="129.265" style="fill:#62AF68;" width="18.552" height="7.67"/>
	<rect x="339.485" y="129.265" style="fill:#62AF68;" width="18.552" height="7.67"/>
	<path style="fill:#CCCCCC;" d="M274.755,6.765h-32.579V84.83h55.39V29.576C297.566,16.978,287.353,6.765,274.755,6.765z"/>
	<rect x="242.176" y="6.765" style="fill:#B3B3B3;" width="23.584" height="78.065"/>
	<rect x="251.87" y="84.83" style="fill:#B3B3B3;" width="7.39" height="21.667"/>
	<rect x="208.982" y="6.765" style="fill:#CCCCCC;" width="12.778" height="78.065"/>
	<rect x="216.76" y="31.547" style="fill:#999999;" width="5" height="28.5"/>
	<polygon style="fill:#B3B3B3;" points="287.87,91.705 287.87,97.835 251.87,105.325 251.87,99.195 	"/>
	<polygon style="fill:#B3B3B3;" points="287.87,84.835 287.87,89.115 251.87,96.605 251.87,90.485 278.97,84.835 	"/>
	<path style="fill:#B3B3B3;" d="M175.76,454.995h-16.43V303.979c0-4.537,3.678-8.215,8.215-8.215h0c4.537,0,8.215,3.678,8.215,8.215
		V454.995z"/>
	<path style="fill:#B3B3B3;" d="M167.55,295.765v13.17h-20.32c-1.12-2.67-1.73-5.6-1.73-8.67c0-1.54,0.15-3.04,0.45-4.5H167.55z"/>
	<path style="fill:#B3B3B3;" d="M431.55,454.995h-16.43V303.979c0-4.537,3.678-8.215,8.215-8.215l0,0
		c4.537,0,8.215,3.678,8.215,8.215V454.995z"/>
	<path style="fill:#B3B3B3;" d="M423.34,295.765v13.17h-20.32c-1.12-2.67-1.73-5.6-1.73-8.67c0-1.54,0.15-3.04,0.45-4.5H423.34z"/>
	<rect x="56.343" y="410.571" style="fill:#B3B3B3;" width="102.987" height="14.999"/>
	<rect x="312.134" y="410.571" style="fill:#B3B3B3;" width="102.987" height="14.999"/>
</g>
</svg>