<?xml version="1.0" encoding="iso-8859-1"?>
<!-- Uploaded to: SVG Repo, www.svgrepo.com, Generator: SVG Repo Mixer Tools -->
<!DOCTYPE svg PUBLIC "-//W3C//DTD SVG 1.1//EN" "http://www.w3.org/Graphics/SVG/1.1/DTD/svg11.dtd">
<svg version="1.1" id="Capa_1" xmlns="http://www.w3.org/2000/svg" xmlns:xlink="http://www.w3.org/1999/xlink" 
	 viewBox="0 0 464.997 464.997" xml:space="preserve">
<g>
	<path style="fill:#638591;" d="M444.497,292.858h-276.5v-41h276.5c11.322,0,20.5,9.178,20.5,20.5v0
		C464.997,283.68,455.819,292.858,444.497,292.858z"/>
	<path style="fill:#99B5C4;" d="M310.497,292.858h-256c-11.322,0-20.5-9.178-20.5-20.5v0c0-11.322,9.178-20.5,20.5-20.5h256
		c11.322,0,20.5,9.178,20.5,20.5v0C330.997,283.68,321.819,292.858,310.497,292.858z"/>
	<polygon style="fill:#CCCCCC;" points="95.947,47.408 95.947,292.858 120.767,292.858 120.767,251.858 298.997,251.858 
		298.997,47.408 	"/>
	<rect x="0" y="47.41" style="fill:#999999;" width="95.948" height="245.448"/>
	<rect x="120.767" y="152.288" style="fill:#4D4D4D;" width="153.41" height="99.57"/>
	<rect x="239.587" y="152.288" style="fill:#666666;" width="34.59" height="99.57"/>
	<g>
		<rect x="15.619" y="124.391" style="fill:#4D4D4D;" width="64.709" height="27.892"/>
		<rect x="15.619" y="124.391" style="fill:#666666;" width="12.271" height="27.892"/>
	</g>
	<g>
		<rect x="15.619" y="74.186" style="fill:#4D4D4D;" width="64.709" height="27.892"/>
		<rect x="15.619" y="74.186" style="fill:#666666;" width="12.271" height="27.892"/>
	</g>
	<rect x="121.887" y="96.5" style="fill:#EF7954;" width="153.405" height="32.354"/>
	<rect x="121.887" y="96.5" style="fill:#D3674A;" width="13.806" height="32.354"/>
	<g>
		<rect x="390.997" y="292.858" style="fill:#999999;" width="20" height="124.731"/>
		<rect x="410.997" y="292.858" style="fill:#808080;" width="20" height="124.731"/>
	</g>
	<g>
		<rect x="307.997" y="292.858" style="fill:#999999;" width="20" height="124.731"/>
		<rect x="327.997" y="292.858" style="fill:#808080;" width="20" height="124.731"/>
	</g>
	<rect x="347.997" y="348.858" style="fill:#808080;" width="63" height="21"/>
	<g>
		<rect x="101.997" y="292.858" style="fill:#999999;" width="20" height="124.731"/>
		<rect x="121.997" y="292.858" style="fill:#808080;" width="20" height="124.731"/>
	</g>
	<g>
		<rect x="18.997" y="292.858" style="fill:#999999;" width="20" height="124.731"/>
		<rect x="38.997" y="292.858" style="fill:#808080;" width="20" height="124.731"/>
	</g>
	<rect x="58.997" y="348.858" style="fill:#808080;" width="63" height="21"/>
</g>
</svg>