<?xml version="1.0" encoding="iso-8859-1"?>
<!-- Uploaded to: SVG Repo, www.svgrepo.com, Generator: SVG Repo Mixer Tools -->
<!DOCTYPE svg PUBLIC "-//W3C//DTD SVG 1.1//EN" "http://www.w3.org/Graphics/SVG/1.1/DTD/svg11.dtd">
<svg version="1.1" id="Capa_1" xmlns="http://www.w3.org/2000/svg" xmlns:xlink="http://www.w3.org/1999/xlink" 
	 viewBox="0 0 465.691 465.691" xml:space="preserve">
<g>
	<path style="fill:#EF7954;" d="M316.612,126.25H80.197V29.552h205.767c16.926,0,30.648,13.721,30.648,30.648V126.25z"/>
	<path style="fill:#CCCCCC;" d="M379.116,119.016H43.339v57.105h335.777c15.769,0,28.552-12.783,28.552-28.552
		C407.669,131.8,394.885,119.016,379.116,119.016z"/>
	<path style="fill:#D3674A;" d="M358.33,146.998c0,15.772-12.78,28.552-28.552,28.552H95.647c15.772,0,28.552-12.78,28.552-28.552
		s-12.78-28.552-28.552-28.552h234.13C345.55,118.445,358.33,131.225,358.33,146.998z"/>
	<path style="fill:#CCCCCC;" d="M439.423,339.441c0,11.695-4.408,22.374-11.649,30.46c-8.36,9.342-20.512,15.224-34.035,15.224
		H93.367v-91.368h300.372C418.968,293.757,439.423,314.212,439.423,339.441z"/>
	<path style="fill:#EF7954;" d="M406.302,339.441c0,25.229-20.455,45.684-45.684,45.684c0,0-190.731-20.455-190.731-45.684
		c0-25.229-20.455-45.684-45.684-45.684h236.415C385.847,293.757,406.302,314.212,406.302,339.441z"/>
	<path style="fill:#B3B3B3;" d="M190.828,369.901l-20.941-30.46c0,0.117,0,0.234-0.001,0.351
		c-0.126,16.734-14.019,30.109-30.753,30.109H93.367v15.224h30.837h77.092h192.444c13.523,0,25.674-5.882,34.035-15.224H190.828z"/>
	
		<image style="overflow:visible;" width="381" height="381" xlink:href="47DE26C5.png"  transform="matrix(0.24 0 0 0.24 47.6826 293.7574)">
	</image>
	<path style="fill:#CCCCCC;" d="M391.74,234.094c0,19.827-9.674,37.392-24.555,48.242c-9.845,7.184-21.985,11.421-35.108,11.421
		H59.675V174.419h272.402c12.769,0,24.601,4.009,34.297,10.839c7.389,5.208,13.545,12.038,17.942,19.987
		C389.045,213.799,391.74,223.632,391.74,234.094z"/>
	<path style="fill:#B3B3B3;" d="M367.185,282.336c-9.845,7.184-21.985,11.421-35.108,11.421H59.675v-11.421H367.185z"/>
	<path style="fill:#B3B3B3;" d="M384.316,205.245h-332.1v-19.987h314.157C373.763,190.466,379.919,197.296,384.316,205.245z"/>
	<path style="fill:#EF7954;" d="M345.222,234.094c0,19.827-9.674,37.404-24.567,48.242c-9.845,7.184-21.985,11.421-35.097,11.421
		h-183.33c13.111,0,25.252-4.237,35.097-11.421c14.893-10.839,24.567-28.415,24.567-48.242c0-10.462-2.695-20.295-7.424-28.849
		c-4.397-7.949-10.553-14.79-17.954-19.987c-9.708-6.83-21.529-10.839-34.286-10.839h183.33c12.757,0,24.578,4.009,34.286,10.839
		c7.401,5.197,13.557,12.038,17.954,19.987C342.527,213.799,345.222,223.632,345.222,234.094z"/>
	<rect x="43.339" y="128.724" style="fill:#B3B3B3;" width="155.9" height="57.105"/>
	<path style="fill:#999999;" d="M71.892,147.569c0,15.772-12.78,28.552-28.552,28.552s-28.552-12.78-28.552-28.552
		s12.78-28.552,28.552-28.552S71.892,131.796,71.892,147.569z"/>
	<path style="fill:#CCCCCC;" d="M437.138,128.153H101.361v57.105h335.777c15.769,0,28.552-12.783,28.552-28.552
		C465.691,140.936,452.907,128.153,437.138,128.153z"/>
	<path style="fill:#999999;" d="M129.914,156.706c0,15.772-12.78,28.552-28.552,28.552s-28.552-12.78-28.552-28.552
		s12.78-28.552,28.552-28.552S129.914,140.933,129.914,156.706z"/>
	<path style="fill:#999999;" d="M119.338,234.094c0,32.95-26.714,59.663-59.663,59.663c-18.81,0-35.588-8.703-46.518-22.294
		C4.923,261.23,0,248.233,0,234.094c0-14.151,4.923-27.148,13.157-37.381c10.93-13.591,27.707-22.294,46.518-22.294
		C92.624,174.419,119.338,201.133,119.338,234.094z"/>
	<g>
		<path style="fill:#808080;" d="M114.147,339.444c0,9.5-6.39,17.53-15.11,19.99c-1.8,0.52-3.7,0.79-5.67,0.79
			c-11.48,0-20.78-9.31-20.78-20.78c0-11.48,9.3-20.78,20.78-20.78c1.97,0,3.87,0.27,5.67,0.79
			C107.757,321.915,114.147,329.935,114.147,339.444z"/>
		<path style="fill:#808080;" d="M56.327,147.564c0,5.15-2.99,9.59-7.32,11.7c-1.72,0.83-3.64,1.29-5.67,1.29
			c-7.17,0-12.98-5.81-12.98-12.99c0-7.17,5.81-12.98,12.98-12.98c2.03,0,3.95,0.46,5.67,1.3
			C53.337,137.984,56.327,142.425,56.327,147.564z"/>
		<path style="fill:#808080;" d="M86.807,234.084c0,13.04-9.2,23.94-21.47,26.54c-1.83,0.4-3.73,0.6-5.67,0.6
			c-14.99,0-27.14-12.15-27.14-27.14s12.15-27.14,27.14-27.14c1.94,0,3.84,0.2,5.67,0.6
			C77.607,210.144,86.807,221.044,86.807,234.084z"/>
		<path style="fill:#808080;" d="M114.347,156.704c0,5.14-2.98,9.58-7.31,11.69c-1.72,0.83-3.64,1.3-5.68,1.3
			c-7.17,0-12.98-5.82-12.98-12.99s5.81-12.99,12.98-12.99c2.04,0,3.96,0.47,5.68,1.3
			C111.367,147.124,114.347,151.564,114.347,156.704z"/>
	</g>
	<g>
		<path style="fill:#666666;" d="M114.147,339.444c0,9.5-6.39,17.53-15.11,19.99c-8.72-2.46-15.12-10.48-15.12-19.99
			c0-9.52,6.4-17.53,15.12-19.99C107.757,321.915,114.147,329.935,114.147,339.444z"/>
		<path style="fill:#666666;" d="M56.327,147.564c0,5.15-2.99,9.59-7.32,11.7c-4.33-2.11-7.32-6.55-7.32-11.7
			c0-5.14,2.99-9.58,7.32-11.68C53.337,137.984,56.327,142.425,56.327,147.564z"/>
		<path style="fill:#666666;" d="M86.807,234.084c0,13.04-9.2,23.94-21.47,26.54c-12.27-2.6-21.47-13.5-21.47-26.54
			s9.2-23.94,21.47-26.54C77.607,210.144,86.807,221.044,86.807,234.084z"/>
		<path style="fill:#666666;" d="M114.347,156.704c0,5.14-2.98,9.58-7.31,11.69c-4.34-2.1-7.33-6.55-7.33-11.69
			s2.99-9.59,7.33-11.69C111.367,147.124,114.347,151.564,114.347,156.704z"/>
	</g>
	<path style="fill:#D3674A;" d="M337.799,205.245h-183.33c-4.397-7.949-10.553-14.79-17.954-19.987h183.33
		C327.246,190.455,333.401,197.296,337.799,205.245z"/>
	<path style="fill:#D3674A;" d="M320.656,282.336c-9.845,7.184-21.985,11.421-35.097,11.421h-183.33
		c13.111,0,25.252-4.237,35.097-11.421H320.656z"/>
	<path style="fill:#EF7954;" d="M406.302,436.139H206.274c-20.096,0-36.387-16.291-36.387-36.387v-60.311h236.415V436.139z"/>
</g>
</svg>